<?xml version="1.0" encoding="iso-8859-1"?>
<!-- Generator: Adobe Illustrator 19.0.0, SVG Export Plug-In . SVG Version: 6.00 Build 0)  -->
<svg version="1.1" id="Layer_1" xmlns="http://www.w3.org/2000/svg" xmlns:xlink="http://www.w3.org/1999/xlink" x="0px" y="0px"
	 viewBox="0 0 512.001 512.001" style="enable-background:new 0 0 512.001 512.001;" xml:space="preserve">
<g>
	<path style="fill:#ECB45C;" d="M442.167,263.758h-23.273H255.985H93.076H69.803c-1.607,0-3.176,0.163-4.69,0.473
		c-5.303,1.085-9.948,3.973-13.269,7.997c-3.32,4.023-5.314,9.18-5.314,14.805v201.697c0,0.619,0.033,1.229,0.081,1.835
		c0.002,0.026,0.002,0.054,0.003,0.081c0.017,0.2,0.043,0.399,0.065,0.599c0.045,0.433,0.101,0.864,0.172,1.291
		c0.031,0.189,0.065,0.375,0.101,0.563c0.006,0.034,0.011,0.068,0.019,0.101c0.081,0.41,0.171,0.816,0.273,1.218
		c0.051,0.205,0.099,0.411,0.158,0.614c0.101,0.362,0.22,0.714,0.34,1.067c0.037,0.113,0.068,0.228,0.107,0.34
		c0.009,0.029,0.019,0.057,0.029,0.087c0.028,0.087,0.054,0.174,0.087,0.259c0.104,0.285,0.231,0.559,0.349,0.839
		c0.118,0.281,0.222,0.565,0.349,0.839c0.036,0.078,0.074,0.154,0.113,0.228c0.039,0.074,0.076,0.152,0.113,0.228
		c0.126,0.259,0.262,0.51,0.397,0.765c0.07,0.132,0.133,0.267,0.206,0.397c0.106,0.189,0.217,0.374,0.327,0.56
		c0.206,0.343,0.419,0.68,0.639,1.01c0.119,0.178,0.237,0.357,0.362,0.531c0.16,0.225,0.33,0.441,0.5,0.659
		c0.096,0.124,0.186,0.253,0.284,0.375c0.037,0.048,0.076,0.095,0.113,0.143c0.067,0.085,0.132,0.172,0.202,0.256
		c0.382,0.458,0.779,0.903,1.195,1.328c0.084,0.087,0.174,0.166,0.261,0.253c0.338,0.338,0.684,0.667,1.044,0.984
		c0.155,0.137,0.313,0.265,0.472,0.397c0.309,0.258,0.621,0.509,0.942,0.749c0.174,0.13,0.349,0.259,0.526,0.386
		c0.169,0.119,0.344,0.23,0.517,0.344s0.341,0.234,0.517,0.344c0.118,0.074,0.234,0.149,0.354,0.223
		c0.043,0.028,0.087,0.056,0.13,0.082c0.514,0.307,1.036,0.6,1.575,0.867c1.772,0.881,3.671,1.545,5.663,1.952
		c0.757,0.155,1.528,0.273,2.31,0.352c0.782,0.079,1.576,0.119,2.38,0.119h186.182h186.182c1.607,0,3.174-0.163,4.689-0.473
		c1.992-0.408,3.893-1.071,5.663-1.952c0.538-0.267,1.061-0.56,1.573-0.867c0.164-0.098,0.324-0.205,0.486-0.307
		c0.352-0.222,0.697-0.45,1.035-0.689c0.177-0.126,0.352-0.256,0.526-0.386c0.321-0.242,0.635-0.492,0.942-0.749
		c0.158-0.132,0.317-0.261,0.47-0.397c0.36-0.318,0.709-0.647,1.047-0.985c0.087-0.085,0.175-0.164,0.259-0.251
		c0.416-0.427,0.811-0.872,1.195-1.328c0.109-0.129,0.209-0.267,0.315-0.399c0.27-0.338,0.534-0.681,0.784-1.035
		c0.124-0.174,0.242-0.354,0.361-0.531c0.222-0.331,0.433-0.667,0.639-1.01c0.11-0.186,0.222-0.371,0.327-0.56
		c0.213-0.38,0.413-0.768,0.604-1.162c0.076-0.154,0.157-0.303,0.227-0.458c0.253-0.548,0.487-1.106,0.697-1.677
		c0.042-0.115,0.076-0.233,0.116-0.349c0.161-0.461,0.313-0.929,0.447-1.404c0.056-0.202,0.104-0.408,0.157-0.613
		c0.101-0.402,0.192-0.808,0.273-1.22c0.043-0.22,0.084-0.442,0.119-0.664c0.071-0.427,0.127-0.858,0.172-1.291
		c0.022-0.2,0.048-0.397,0.065-0.599c0.051-0.633,0.085-1.271,0.085-1.918V287.03C465.44,274.178,455.02,263.758,442.167,263.758z"
		/>
	<path style="fill:#ECB45C;" d="M442.167,263.758h-23.273H255.985H93.076H69.803c-12.853,0-23.273,10.42-23.273,23.273v201.697
		c0,0.647,0.033,1.285,0.085,1.918c0.017,0.2,0.043,0.399,0.065,0.599c0.045,0.433,0.101,0.864,0.172,1.291
		c0.036,0.223,0.076,0.444,0.119,0.664c0.081,0.41,0.171,0.816,0.273,1.218c0.051,0.205,0.099,0.411,0.158,0.614
		c0.133,0.476,0.284,0.943,0.447,1.407c0.039,0.115,0.073,0.231,0.115,0.344c0.209,0.571,0.444,1.129,0.697,1.677
		c0.071,0.155,0.152,0.304,0.227,0.458c0.191,0.393,0.391,0.78,0.604,1.162c0.106,0.189,0.217,0.374,0.327,0.56
		c0.206,0.343,0.419,0.68,0.639,1.01c0.119,0.178,0.237,0.357,0.362,0.531c0.25,0.354,0.514,0.697,0.784,1.035
		c0.106,0.132,0.206,0.27,0.315,0.399c0.382,0.458,0.779,0.903,1.195,1.328c0.084,0.087,0.174,0.166,0.261,0.253
		c0.338,0.338,0.684,0.667,1.044,0.984c0.155,0.137,0.313,0.265,0.472,0.397c0.309,0.258,0.621,0.509,0.942,0.749
		c0.174,0.13,0.349,0.259,0.526,0.386c0.338,0.239,0.683,0.469,1.035,0.69c0.161,0.101,0.32,0.208,0.484,0.306
		c0.514,0.307,1.036,0.6,1.575,0.867c1.772,0.881,3.671,1.545,5.663,1.952c1.516,0.31,3.081,0.473,4.689,0.473h186.182h186.182
		c1.607,0,3.174-0.163,4.689-0.473c1.992-0.408,3.893-1.071,5.663-1.952c0.538-0.267,1.061-0.56,1.573-0.867
		c0.164-0.098,0.324-0.205,0.486-0.307c0.352-0.222,0.697-0.45,1.035-0.689c0.177-0.126,0.352-0.256,0.526-0.386
		c0.321-0.242,0.635-0.492,0.942-0.749c0.158-0.132,0.317-0.261,0.47-0.397c0.36-0.318,0.709-0.647,1.047-0.985
		c0.087-0.085,0.175-0.164,0.259-0.251c0.416-0.427,0.811-0.872,1.195-1.328c0.109-0.129,0.209-0.267,0.315-0.399
		c0.27-0.338,0.534-0.681,0.784-1.035c0.124-0.174,0.242-0.354,0.362-0.531c0.222-0.33,0.433-0.667,0.639-1.01
		c0.11-0.186,0.222-0.371,0.327-0.56c0.213-0.38,0.413-0.768,0.604-1.162c0.076-0.154,0.157-0.303,0.227-0.458
		c0.253-0.548,0.487-1.106,0.697-1.677c0.042-0.115,0.076-0.233,0.116-0.349c0.161-0.461,0.313-0.929,0.447-1.404
		c0.056-0.202,0.104-0.408,0.157-0.613c0.101-0.402,0.192-0.808,0.273-1.22c0.043-0.22,0.084-0.442,0.119-0.664
		c0.071-0.427,0.127-0.858,0.172-1.291c0.022-0.2,0.048-0.397,0.065-0.599c0.051-0.633,0.085-1.271,0.085-1.918V287.03
		C465.44,274.178,455.02,263.758,442.167,263.758z M199.184,407.288c5.14,0,5.323-1.466,5.812-5.387
		c0.565-4.617,4.208-7.727,9.061-7.727c2.136,0,9.109,0.707,9.109,9.813c0,10.476-8.448,21.079-24.598,21.079
		c-15.067,0-24.427-9.595-24.427-25.038v-27.28c0-15.391,9.46-24.953,24.688-24.953c15.978,0,24.337,10.516,24.337,20.905
		c0,6.09-3.404,9.725-9.109,9.725c-5.019,0-8.76-3.275-9.093-7.965c-0.147-3.148-1.195-4.883-6.133-4.883
		c-4.381,0-6.467,1.074-6.467,7.174v27.28C192.362,406.239,194.468,407.288,199.184,407.288z M257.144,425.157
		c-0.393,0-0.773-0.031-1.159-0.043c-5.817-0.196-10.958-1.832-14.907-4.229c-0.006-0.003-0.012-0.008-0.019-0.012
		c-0.549-0.335-1.078-0.681-1.579-1.043c-0.039-0.028-0.076-0.057-0.113-0.085c-0.465-0.34-0.914-0.687-1.336-1.049
		c-0.068-0.059-0.129-0.119-0.197-0.178c-0.382-0.335-0.752-0.675-1.094-1.024c-0.096-0.096-0.175-0.195-0.267-0.292
		c-0.298-0.32-0.593-0.639-0.856-0.968c-0.112-0.138-0.206-0.281-0.312-0.422c-0.222-0.295-0.444-0.588-0.636-0.889
		c-0.116-0.182-0.208-0.365-0.313-0.549c-0.154-0.265-0.313-0.529-0.444-0.797c-0.11-0.228-0.191-0.459-0.285-0.69
		c-0.092-0.227-0.197-0.453-0.273-0.68c-0.093-0.287-0.149-0.574-0.216-0.861c-0.039-0.174-0.098-0.348-0.127-0.521
		c-0.078-0.461-0.118-0.922-0.118-1.378c0-4.467,3.784-9.464,8.848-9.464c3.424,0,5.483,2.219,6.844,3.686
		c1.623,1.749,3.196,3.387,7.396,3.582h0.005v-14.012c-0.725-0.29-1.499-0.59-2.355-0.912c-7.627-2.866-19.153-7.196-19.153-22.485
		c0-0.825,0.039-1.629,0.105-2.417c0.025-0.272,0.07-0.532,0.102-0.799c0.059-0.504,0.118-1.007,0.206-1.494
		c0.057-0.318,0.137-0.622,0.206-0.934c0.093-0.416,0.182-0.833,0.296-1.235c0.095-0.33,0.206-0.649,0.312-0.97
		c0.121-0.358,0.239-0.718,0.379-1.067c0.13-0.332,0.279-0.653,0.425-0.976c0.144-0.313,0.289-0.624,0.445-0.926
		c0.171-0.329,0.355-0.649,0.546-0.965c0.161-0.27,0.326-0.535,0.498-0.794c0.216-0.323,0.441-0.639,0.676-0.948
		c0.171-0.227,0.349-0.448,0.532-0.667c0.262-0.316,0.532-0.625,0.816-0.925c0.174-0.185,0.355-0.362,0.538-0.538
		c0.318-0.31,0.641-0.614,0.982-0.903c0.161-0.138,0.334-0.268,0.501-0.4c0.383-0.306,0.771-0.605,1.182-0.884
		c0.126-0.087,0.261-0.164,0.388-0.248c0.472-0.306,0.948-0.605,1.452-0.878c0.028-0.014,0.057-0.028,0.085-0.042
		c3.052-1.645,6.692-2.686,10.831-3.049c0.393-0.034,0.793-0.062,1.193-0.084c0.709-0.043,1.427-0.076,2.166-0.076
		c7.796,0,20.99,2.437,20.99,11.573c0,4.571-3.52,9.464-8.758,9.464c-2.034,0-3.567-0.788-4.918-1.485
		c-1.612-0.83-3.62-1.862-7.405-1.862c-0.369,0-0.714,0.011-1.043,0.026c-0.161,0.008-0.31,0.02-0.462,0.031
		c-0.146,0.011-0.29,0.022-0.425,0.034c-0.195,0.02-0.382,0.042-0.56,0.068c-0.062,0.008-0.123,0.017-0.182,0.028
		c-0.208,0.033-0.41,0.067-0.596,0.107v7.762c0.008,0.003,0.016,0.006,0.023,0.009c0.279,0.135,0.585,0.275,0.912,0.419
		c0.047,0.02,0.096,0.042,0.143,0.062c0.296,0.129,0.614,0.261,0.951,0.399c0.081,0.033,0.158,0.065,0.24,0.098
		c0.329,0.133,0.683,0.272,1.053,0.414c0.095,0.036,0.18,0.071,0.278,0.109c0.465,0.177,0.956,0.361,1.488,0.557
		c8.301,3.049,20.845,7.657,20.845,25.387C281.917,415.832,272.425,425.157,257.144,425.157z M316.156,425.157
		c-13.878,0-24.249-8.294-24.249-15.711c0-4.467,3.783-9.464,8.845-9.464c3.426,0,5.485,2.22,6.847,3.688
		c1.725,1.86,3.356,3.618,8.201,3.618c6.375,0,6.909-2.935,6.909-5.941c0-4.622-2.025-5.998-10.068-9.021
		c-7.627-2.866-19.153-7.196-19.153-22.485c0-13.706,9.529-22.221,24.866-22.221c7.796,0,20.99,2.437,20.99,11.573
		c0,4.571-3.52,9.464-8.758,9.464c-2.036,0-3.567-0.788-4.92-1.485c-1.61-0.83-3.617-1.862-7.402-1.862
		c-6.558,0-6.558,2.507-6.558,4.006c0,2.423,0.822,3.34,8.375,6.115c8.302,3.049,20.846,7.658,20.846,25.389
		C340.932,415.832,331.439,425.157,316.156,425.157z"/>
</g>
<g>
	<path style="fill:#D6D5D8;" d="M457.55,506.18L457.55,506.18c0.362-0.32,0.712-0.65,1.055-0.993
		c-0.003,0.003-0.006,0.005-0.008,0.006C458.258,505.533,457.912,505.862,457.55,506.18z"/>
	<path style="fill:#D6D5D8;" d="M458.857,504.942C458.857,504.944,458.857,504.944,458.857,504.942
		c0.414-0.427,0.813-0.872,1.196-1.33c-0.002,0-0.003,0-0.003,0.002C459.67,504.072,459.273,504.515,458.857,504.942z"/>
	<path style="fill:#D6D5D8;" d="M461.511,501.648c0,0.002-0.002,0.003-0.003,0.005c0.225-0.334,0.438-0.673,0.645-1.018
		c0,0-0.003,0.003-0.003,0.005C461.944,500.98,461.733,501.316,461.511,501.648z"/>
	<path style="fill:#D6D5D8;" d="M463.308,498.458L463.308,498.458c0.253-0.548,0.487-1.106,0.697-1.677l0,0
		C463.797,497.354,463.561,497.911,463.308,498.458z"/>
	<path style="fill:#D6D5D8;" d="M465.117,492.535L465.117,492.535c0.071-0.427,0.127-0.858,0.172-1.292c0,0,0,0,0,0.002
		C465.244,491.677,465.188,492.108,465.117,492.535z"/>
	<path style="fill:#D6D5D8;" d="M464.123,496.434c-0.002,0.002-0.002,0.005-0.002,0.006c0.163-0.464,0.313-0.934,0.448-1.412v0.002
		C464.436,495.504,464.284,495.971,464.123,496.434z"/>
	<path style="fill:#D6D5D8;" d="M464.725,494.418c-0.002,0.002-0.002,0.002-0.002,0.002c0.102-0.403,0.194-0.81,0.276-1.223
		c-0.002,0-0.002,0-0.002,0C464.917,493.61,464.827,494.015,464.725,494.418z"/>
	<path style="fill:#D6D5D8;" d="M460.366,503.214c-0.003,0.002-0.005,0.005-0.006,0.008c0.273-0.341,0.538-0.689,0.791-1.046
		l-0.002,0.002C460.9,502.533,460.636,502.876,460.366,503.214z"/>
	<path style="fill:#D6D5D8;" d="M465.354,490.645c0.051-0.633,0.085-1.271,0.085-1.918
		C465.44,489.374,465.407,490.012,465.354,490.645L465.354,490.645z"/>
	<path style="fill:#D6D5D8;" d="M462.478,500.078c0,0,0,0.002-0.002,0.003c0.216-0.383,0.416-0.776,0.61-1.171
		c-0.002,0.003-0.003,0.005-0.005,0.006C462.891,499.31,462.69,499.698,462.478,500.078z"/>
	<path style="fill:#D6D5D8;" d="M456.138,507.327L456.138,507.327c0.321-0.242,0.636-0.493,0.945-0.751l-0.003,0.002
		C456.773,506.833,456.46,507.085,456.138,507.327z"/>
	<path style="fill:#D6D5D8;" d="M455.267,507.966c0.118-0.081,0.23-0.172,0.348-0.256l0,0
		C455.496,507.795,455.384,507.885,455.267,507.966z"/>
</g>
<path style="fill:#E0E0E2;" d="M46.531,287.03c0-12.853,10.42-23.273,23.273-23.273h23.273h162.909h162.909h23.273
	c12.853,0,23.273,10.42,23.273,23.273V179.018c-0.321,12.573-10.589,22.672-23.242,22.672c-0.012,0-0.022,0-0.031,0h-23.273H287.016
	c-12.853,0-23.273-10.42-23.273-23.273V46.545V23.273c0-9.413,5.669-17.9,14.367-21.501c2.993-1.24,6.139-1.801,9.253-1.755
	C287.247,0.016,287.132,0,287.016,0H69.803C56.951,0,46.531,10.418,46.531,23.273C46.531,23.273,46.531,287.03,46.531,287.03z"/>
<g>
	<path style="fill:#D6D5D8;" d="M47.966,496.781c0,0,0-0.002-0.002-0.002c0.211,0.572,0.445,1.131,0.698,1.68v-0.002
		C48.41,497.911,48.175,497.352,47.966,496.781z"/>
	<path style="fill:#D6D5D8;" d="M48.891,498.916c-0.002-0.003-0.003-0.005-0.005-0.006c0.194,0.396,0.394,0.788,0.61,1.171
		c-0.002-0.002-0.002-0.002-0.002-0.002C49.282,499.698,49.081,499.31,48.891,498.916z"/>
	<path style="fill:#D6D5D8;" d="M46.531,488.727c0,0.647,0.033,1.285,0.085,1.918l0,0C46.565,490.012,46.531,489.374,46.531,488.727
		z"/>
	<path style="fill:#D6D5D8;" d="M51.921,503.614c0,0-0.002,0-0.003-0.002c0.383,0.459,0.782,0.903,1.196,1.331c0,0,0,0,0-0.002
		C52.7,504.515,52.302,504.072,51.921,503.614z"/>
	<path style="fill:#D6D5D8;" d="M56.358,507.712c0.116,0.084,0.228,0.174,0.348,0.256C56.588,507.885,56.474,507.795,56.358,507.712
		L56.358,507.712z"/>
	<path style="fill:#D6D5D8;" d="M53.374,505.195c-0.003-0.002-0.006-0.005-0.008-0.006c0.341,0.34,0.69,0.672,1.053,0.991
		c0,0-0.002,0-0.002-0.002C54.06,505.862,53.713,505.533,53.374,505.195z"/>
	<path style="fill:#D6D5D8;" d="M49.82,500.638c0-0.002-0.002-0.003-0.003-0.005c0.208,0.346,0.422,0.684,0.645,1.018
		c-0.002-0.002-0.003-0.003-0.003-0.005C50.239,501.316,50.026,500.98,49.82,500.638z"/>
	<path style="fill:#D6D5D8;" d="M50.822,502.179l-0.002-0.002c0.253,0.357,0.518,0.704,0.791,1.046
		c-0.002-0.002-0.003-0.005-0.006-0.008C51.336,502.876,51.072,502.533,50.822,502.179z"/>
	<path style="fill:#D6D5D8;" d="M54.89,506.576l-0.002-0.002c0.309,0.259,0.622,0.51,0.945,0.752l-0.002-0.002
		C55.511,507.085,55.199,506.833,54.89,506.576z"/>
	<path style="fill:#D6D5D8;" d="M46.973,493.199C46.973,493.199,46.973,493.197,46.973,493.199c0.081,0.411,0.171,0.818,0.275,1.221
		l-0.002-0.002C47.145,494.015,47.054,493.608,46.973,493.199z"/>
	<path style="fill:#D6D5D8;" d="M47.404,495.031l-0.002-0.002c0.135,0.479,0.285,0.95,0.451,1.415
		c-0.002-0.002-0.003-0.005-0.003-0.006C47.687,495.974,47.538,495.506,47.404,495.031z"/>
	<path style="fill:#D6D5D8;" d="M46.681,491.244C46.681,491.242,46.681,491.242,46.681,491.244c0.045,0.433,0.101,0.864,0.172,1.291
		l0,0C46.782,492.108,46.726,491.677,46.681,491.244z"/>
</g>
<path style="fill:#C6C5CA;" d="M263.743,23.273v23.273v131.873c0,12.853,10.42,23.273,23.273,23.273h131.879h23.273
	c0.009,0,0.019,0,0.031,0c12.653,0,22.921-10.1,23.242-22.672c0.005-0.202,0.031-0.397,0.031-0.6c0-4.824-1.488-9.289-4-13.003
	c-0.003-0.003-0.005-0.008-0.008-0.011c-0.397-0.588-0.824-1.153-1.271-1.7c-0.037-0.045-0.071-0.092-0.109-0.135
	c-0.424-0.512-0.875-1.001-1.339-1.474c-0.073-0.073-0.144-0.147-0.217-0.22c-0.205-0.202-0.394-0.419-0.605-0.613L303.472,6.816
	c-0.483-0.483-0.988-0.934-1.503-1.365c-0.161-0.133-0.324-0.259-0.487-0.388c-0.372-0.296-0.753-0.582-1.142-0.855
	c-0.194-0.135-0.388-0.27-0.585-0.399c-0.408-0.267-0.827-0.52-1.252-0.76c-0.171-0.098-0.337-0.203-0.509-0.296
	c-0.562-0.299-1.139-0.576-1.725-0.83c-0.237-0.102-0.479-0.192-0.72-0.287c-0.388-0.154-0.78-0.298-1.179-0.431
	c-0.27-0.09-0.541-0.177-0.813-0.256c-0.45-0.132-0.908-0.247-1.368-0.352c-0.2-0.045-0.397-0.101-0.597-0.141
	c-0.649-0.13-1.308-0.228-1.975-0.301c-0.202-0.023-0.405-0.036-0.607-0.053c-0.545-0.047-1.092-0.074-1.648-0.084
	c-3.114-0.047-6.26,0.515-9.253,1.755C269.414,5.373,263.743,13.86,263.743,23.273z"/>
<g>
	<path style="fill:#57565C;" d="M255.985,407.251c0,0-0.002,0-0.005,0c-4.2-0.194-5.773-1.832-7.396-3.582
		c-1.361-1.468-3.42-3.686-6.844-3.686c-5.064,0-8.848,4.996-8.848,9.464c0,0.456,0.04,0.917,0.118,1.378
		c0.029,0.174,0.088,0.348,0.127,0.521c0.065,0.287,0.123,0.574,0.216,0.861c0.076,0.228,0.182,0.455,0.273,0.681
		c0.095,0.23,0.174,0.461,0.285,0.69c0.13,0.267,0.292,0.532,0.444,0.797c0.104,0.183,0.199,0.368,0.313,0.549
		c0.192,0.299,0.416,0.594,0.636,0.889c0.105,0.141,0.2,0.284,0.312,0.422c0.264,0.329,0.557,0.649,0.856,0.968
		c0.092,0.098,0.172,0.197,0.267,0.293c0.341,0.349,0.711,0.689,1.094,1.024c0.067,0.059,0.129,0.121,0.197,0.178
		c0.422,0.36,0.87,0.709,1.336,1.049c0.037,0.028,0.074,0.057,0.113,0.085c0.501,0.36,1.027,0.707,1.579,1.043
		c0.006,0.005,0.012,0.008,0.019,0.012c3.952,2.389,9.095,4.032,14.907,4.229V407.251z"/>
	<path style="fill:#57565C;" d="M255.985,373.367c-0.002-0.002-0.005-0.003-0.006-0.003c-0.698-0.337-1.249-0.65-1.683-0.953
		c-0.019-0.012-0.039-0.026-0.057-0.039c-0.419-0.298-0.731-0.591-0.954-0.891c-0.012-0.017-0.025-0.034-0.036-0.051
		c-0.098-0.138-0.182-0.278-0.248-0.42c-0.006-0.014-0.016-0.028-0.022-0.042c-0.07-0.155-0.124-0.315-0.163-0.481
		c-0.006-0.019-0.008-0.039-0.012-0.057c-0.033-0.143-0.054-0.293-0.07-0.447c-0.005-0.04-0.009-0.082-0.012-0.126
		c-0.012-0.174-0.022-0.352-0.022-0.541c0-0.13,0.002-0.272,0.006-0.417c0-0.026,0.002-0.051,0.003-0.076
		c0.006-0.158,0.02-0.321,0.043-0.487c0-0.002,0.002-0.003,0.002-0.006c0.051-0.348,0.158-0.706,0.36-1.052l0,0
		c0.41-0.694,1.233-1.322,2.872-1.674v-17.825c-4.141,0.363-7.781,1.407-10.831,3.049c-0.028,0.014-0.057,0.028-0.085,0.042
		c-0.503,0.273-0.979,0.573-1.452,0.878c-0.127,0.084-0.262,0.163-0.388,0.248c-0.411,0.279-0.799,0.58-1.182,0.884
		c-0.168,0.133-0.34,0.262-0.501,0.4c-0.341,0.289-0.664,0.594-0.982,0.903c-0.182,0.177-0.363,0.355-0.538,0.538
		c-0.285,0.298-0.554,0.61-0.816,0.925c-0.183,0.219-0.36,0.441-0.532,0.667c-0.234,0.309-0.461,0.625-0.676,0.948
		c-0.172,0.259-0.338,0.524-0.498,0.794c-0.189,0.316-0.372,0.636-0.546,0.965c-0.158,0.303-0.301,0.613-0.445,0.926
		c-0.147,0.321-0.296,0.644-0.427,0.976c-0.138,0.348-0.258,0.707-0.379,1.067c-0.105,0.321-0.219,0.639-0.312,0.97
		c-0.115,0.402-0.205,0.819-0.296,1.235c-0.07,0.31-0.149,0.614-0.206,0.934c-0.088,0.487-0.147,0.991-0.206,1.494
		c-0.033,0.267-0.079,0.527-0.102,0.799c-0.067,0.787-0.105,1.592-0.105,2.417c0,15.29,11.526,19.62,19.153,22.485
		c0.856,0.323,1.631,0.622,2.355,0.912L255.985,373.367L255.985,373.367z"/>
	<path style="fill:#57565C;" d="M255.985,393.239c0.343,0.137,0.669,0.272,0.984,0.403c0.054,0.023,0.11,0.047,0.166,0.07
		c0.284,0.121,0.555,0.239,0.818,0.357c0.071,0.033,0.144,0.065,0.214,0.098c0.245,0.112,0.484,0.225,0.709,0.334
		c0.07,0.034,0.137,0.068,0.205,0.102c0.22,0.11,0.434,0.22,0.635,0.329c0.054,0.029,0.104,0.061,0.158,0.09
		c0.206,0.115,0.406,0.23,0.593,0.344c0.016,0.009,0.028,0.019,0.042,0.028c0.617,0.385,1.123,0.777,1.539,1.195
		c0.028,0.028,0.059,0.054,0.087,0.082c0.102,0.105,0.194,0.217,0.285,0.327c0.045,0.056,0.095,0.112,0.138,0.168
		c0.078,0.102,0.147,0.208,0.217,0.315c0.045,0.07,0.092,0.14,0.132,0.211c0.059,0.102,0.113,0.208,0.164,0.313
		c0.039,0.082,0.079,0.164,0.115,0.25c0.042,0.104,0.085,0.209,0.121,0.317c0.034,0.096,0.064,0.195,0.095,0.295
		c0.028,0.104,0.059,0.208,0.085,0.317c0.026,0.115,0.048,0.234,0.07,0.354c0.019,0.102,0.036,0.203,0.051,0.309
		c0.022,0.146,0.033,0.299,0.047,0.453c0.008,0.09,0.019,0.175,0.023,0.265c0.016,0.251,0.025,0.512,0.025,0.785
		c0,3.007-0.534,5.941-6.909,5.941c-0.292,0-0.537-0.026-0.805-0.039v17.863c0.386,0.012,0.766,0.043,1.159,0.043
		c15.281,0,24.773-9.325,24.773-24.337c0-17.731-12.544-22.339-20.845-25.387c-0.532-0.195-1.021-0.379-1.488-0.557
		c-0.096-0.037-0.183-0.071-0.278-0.109c-0.369-0.143-0.725-0.281-1.053-0.414c-0.084-0.033-0.161-0.065-0.24-0.098
		c-0.337-0.137-0.655-0.27-0.951-0.399c-0.047-0.02-0.096-0.042-0.143-0.062c-0.327-0.144-0.633-0.284-0.912-0.419
		c-0.008-0.003-0.016-0.006-0.023-0.009v19.873H255.985z"/>
	<path style="fill:#57565C;" d="M320.088,375.431c-7.553-2.774-8.375-3.691-8.375-6.115c0-1.499,0-4.006,6.558-4.006
		c3.784,0,5.79,1.032,7.401,1.862c1.353,0.697,2.884,1.485,4.92,1.485c5.238,0,8.758-4.893,8.758-9.464
		c0-9.135-13.194-11.574-20.99-11.574c-15.338,0-24.866,8.515-24.866,22.221c0,15.29,11.526,19.62,19.153,22.485
		c8.045,3.022,10.068,4.4,10.068,9.022c0,3.007-0.534,5.941-6.909,5.941c-4.845,0-6.476-1.758-8.201-3.618
		c-1.362-1.468-3.421-3.688-6.847-3.688c-5.063,0-8.845,4.996-8.845,9.464c0,7.416,10.37,15.711,24.249,15.711
		c15.282,0,24.776-9.325,24.776-24.337C340.932,383.089,328.388,378.481,320.088,375.431z"/>
	<path style="fill:#57565C;" d="M198.829,365.574c4.94,0,5.986,1.735,6.133,4.884c0.335,4.689,4.074,7.965,9.093,7.965
		c5.705,0,9.109-3.635,9.109-9.725c0-10.387-8.36-20.905-24.337-20.905c-15.228,0-24.688,9.562-24.688,24.953v27.282
		c0,15.444,9.36,25.038,24.427,25.038c16.148,0,24.598-10.603,24.598-21.079c0-9.106-6.973-9.813-9.109-9.813
		c-4.853,0-8.496,3.111-9.061,7.727c-0.49,3.919-0.673,5.387-5.812,5.387c-4.717,0-6.82-1.049-6.82-7.26v-27.282
		C192.362,366.648,194.448,365.574,198.829,365.574z"/>
	<path style="fill:#57565C;" d="M255.985,365.605c0.186-0.04,0.386-0.076,0.596-0.107c0.059-0.009,0.121-0.019,0.182-0.028
		c0.178-0.026,0.363-0.048,0.56-0.068c0.137-0.014,0.282-0.025,0.427-0.034c0.154-0.011,0.299-0.023,0.462-0.031
		c0.327-0.016,0.673-0.026,1.043-0.026c3.786,0,5.793,1.032,7.405,1.862c1.351,0.697,2.884,1.485,4.918,1.485
		c5.238,0,8.758-4.893,8.758-9.464c0-9.135-13.194-11.574-20.99-11.574c-0.74,0-1.454,0.037-2.166,0.076
		c-0.4,0.025-0.801,0.05-1.193,0.084v17.827H255.985z"/>
</g>
<g>
	<path style="fill:#ECB45C;" d="M263.699,401.347c0-0.273-0.009-0.534-0.025-0.785c-0.005-0.092-0.016-0.177-0.023-0.265
		c-0.014-0.154-0.028-0.307-0.047-0.453c-0.016-0.105-0.033-0.206-0.051-0.309c-0.022-0.121-0.043-0.239-0.07-0.354
		c-0.026-0.109-0.056-0.213-0.085-0.317c-0.031-0.101-0.061-0.199-0.095-0.295c-0.036-0.107-0.079-0.213-0.121-0.317
		c-0.036-0.085-0.076-0.168-0.115-0.25c-0.051-0.105-0.105-0.211-0.164-0.313c-0.04-0.071-0.087-0.141-0.132-0.211
		c-0.07-0.105-0.14-0.213-0.217-0.315c-0.043-0.057-0.093-0.112-0.138-0.168c-0.092-0.11-0.182-0.22-0.285-0.327
		c-0.028-0.028-0.059-0.056-0.087-0.082c-0.417-0.416-0.923-0.808-1.539-1.195c-0.014-0.009-0.028-0.019-0.042-0.028
		c-0.186-0.115-0.386-0.23-0.593-0.344c-0.053-0.029-0.102-0.059-0.158-0.09c-0.202-0.109-0.416-0.219-0.635-0.329
		c-0.068-0.034-0.135-0.068-0.205-0.102c-0.225-0.11-0.464-0.222-0.709-0.334c-0.07-0.033-0.143-0.065-0.214-0.098
		c-0.262-0.118-0.534-0.236-0.818-0.357c-0.054-0.023-0.11-0.047-0.166-0.07c-0.315-0.132-0.639-0.265-0.984-0.403v14.012
		c0.268,0.012,0.514,0.039,0.805,0.039C263.166,407.288,263.699,404.354,263.699,401.347z"/>
	<path style="fill:#ECB45C;" d="M258.874,394.501c0.07,0.034,0.137,0.068,0.205,0.102
		C259.011,394.567,258.946,394.535,258.874,394.501z"/>
	<path style="fill:#ECB45C;" d="M262.045,396.586c0.028,0.028,0.059,0.054,0.087,0.082
		C262.106,396.642,262.073,396.614,262.045,396.586z"/>
	<path style="fill:#ECB45C;" d="M257.953,394.069c0.071,0.033,0.144,0.065,0.214,0.098
		C258.097,394.134,258.024,394.102,257.953,394.069z"/>
	<path style="fill:#ECB45C;" d="M256.969,393.643c0.054,0.023,0.11,0.047,0.166,0.07
		C257.079,393.689,257.023,393.666,256.969,393.643z"/>
	<path style="fill:#ECB45C;" d="M260.464,395.365c0.016,0.009,0.028,0.019,0.042,0.028
		C260.492,395.383,260.48,395.374,260.464,395.365z"/>
	<path style="fill:#ECB45C;" d="M263.484,399.18c0.026,0.115,0.048,0.234,0.07,0.354C263.533,399.414,263.51,399.295,263.484,399.18
		z"/>
	<path style="fill:#ECB45C;" d="M256.79,407.288c-0.292,0-0.537-0.026-0.805-0.039l0,0
		C256.254,407.263,256.499,407.288,256.79,407.288z"/>
	<path style="fill:#ECB45C;" d="M259.715,394.93c0.054,0.031,0.104,0.06,0.158,0.09C259.819,394.991,259.769,394.96,259.715,394.93z
		"/>
	<path style="fill:#ECB45C;" d="M263.069,398.002c0.039,0.082,0.079,0.164,0.115,0.25
		C263.147,398.167,263.108,398.085,263.069,398.002z"/>
	<path style="fill:#ECB45C;" d="M263.605,399.844c0.02,0.146,0.033,0.299,0.047,0.453
		C263.639,400.143,263.626,399.99,263.605,399.844z"/>
	<path style="fill:#ECB45C;" d="M263.305,398.569c0.034,0.096,0.064,0.194,0.095,0.295
		C263.369,398.764,263.339,398.665,263.305,398.569z"/>
	<path style="fill:#ECB45C;" d="M262.418,396.995c0.045,0.056,0.095,0.112,0.138,0.168
		C262.511,397.107,262.463,397.051,262.418,396.995z"/>
	<path style="fill:#ECB45C;" d="M262.772,397.478c0.045,0.07,0.092,0.14,0.132,0.211
		C262.863,397.618,262.818,397.548,262.772,397.478z"/>
	<path style="fill:#ECB45C;" d="M263.675,400.562c0.016,0.251,0.025,0.512,0.025,0.785
		C263.699,401.074,263.69,400.814,263.675,400.562z"/>
	<path style="fill:#ECB45C;" d="M460.36,503.222c-0.102,0.13-0.202,0.262-0.306,0.391
		C460.158,503.485,460.256,503.352,460.36,503.222z"/>
	<path style="fill:#ECB45C;" d="M461.508,501.653c-0.118,0.175-0.234,0.352-0.357,0.524
		C461.274,502.004,461.39,501.828,461.508,501.653z"/>
	<path style="fill:#ECB45C;" d="M465.354,490.645c-0.017,0.2-0.043,0.399-0.065,0.597
		C465.311,491.044,465.339,490.845,465.354,490.645z"/>
	<path style="fill:#ECB45C;" d="M465.117,492.535c-0.036,0.222-0.076,0.442-0.118,0.663
		C465.041,492.977,465.081,492.757,465.117,492.535z"/>
	<path style="fill:#ECB45C;" d="M464.121,496.44c-0.039,0.113-0.073,0.23-0.115,0.341
		C464.048,496.669,464.079,496.553,464.121,496.44z"/>
	<path style="fill:#ECB45C;" d="M463.308,498.46c-0.07,0.152-0.15,0.299-0.223,0.45C463.159,498.759,463.238,498.614,463.308,498.46
		z"/>
	<path style="fill:#ECB45C;" d="M462.476,500.081c-0.104,0.186-0.214,0.369-0.323,0.552
		C462.262,500.451,462.372,500.267,462.476,500.081z"/>
	<path style="fill:#ECB45C;" d="M456.137,507.327c-0.172,0.13-0.348,0.259-0.524,0.383
		C455.791,507.586,455.965,507.457,456.137,507.327z"/>
	<path style="fill:#ECB45C;" d="M464.723,494.42c-0.051,0.203-0.098,0.406-0.155,0.608
		C464.625,494.828,464.672,494.623,464.723,494.42z"/>
	<path style="fill:#ECB45C;" d="M454.578,508.4c-0.161,0.102-0.32,0.209-0.486,0.307C454.258,508.61,454.418,508.504,454.578,508.4z
		"/>
	<path style="fill:#ECB45C;" d="M458.857,504.944c-0.082,0.084-0.169,0.161-0.251,0.244
		C458.688,505.105,458.774,505.027,458.857,504.944z"/>
	<path style="fill:#ECB45C;" d="M457.55,506.18c-0.154,0.135-0.312,0.264-0.467,0.394C457.24,506.444,457.398,506.315,457.55,506.18
		z"/>
	<path style="fill:#ECB45C;" d="M455.612,507.712L455.612,507.712c0.177-0.126,0.352-0.254,0.524-0.385
		c0.002,0,0.002-0.002,0.002-0.002C455.965,507.457,455.791,507.586,455.612,507.712z"/>
	<path style="fill:#ECB45C;" d="M458.598,505.194c0.002-0.003,0.005-0.005,0.008-0.006c0.082-0.082,0.169-0.16,0.251-0.244
		c0,0,0,0,0-0.002C458.773,505.029,458.684,505.108,458.598,505.194z"/>
	<path style="fill:#ECB45C;" d="M457.082,506.576l0.002-0.002c0.157-0.13,0.315-0.259,0.469-0.394l0,0
		C457.398,506.315,457.238,506.444,457.082,506.576z"/>
	<path style="fill:#ECB45C;" d="M464.005,496.783L464.005,496.783c0.042-0.113,0.076-0.23,0.115-0.343c0-0.002,0-0.005,0.002-0.006
		C464.081,496.55,464.048,496.668,464.005,496.783z"/>
	<path style="fill:#ECB45C;" d="M464.569,495.03v-0.002c0.056-0.2,0.102-0.405,0.155-0.608c0,0,0-0.002,0.002-0.003
		C464.673,494.621,464.625,494.828,464.569,495.03z"/>
	<path style="fill:#ECB45C;" d="M460.051,503.614c0,0,0.002,0,0.003-0.002c0.104-0.127,0.203-0.261,0.306-0.391
		c0.002-0.002,0.003-0.005,0.006-0.008C460.259,503.347,460.16,503.484,460.051,503.614z"/>
	<path style="fill:#ECB45C;" d="M465.291,491.244C465.291,491.242,465.291,491.242,465.291,491.244
		c0.022-0.2,0.048-0.397,0.065-0.599l0,0C465.339,490.845,465.311,491.044,465.291,491.244z"/>
	<path style="fill:#ECB45C;" d="M464.998,493.199C464.998,493.199,464.998,493.197,464.998,493.199
		c0.043-0.222,0.084-0.442,0.119-0.664l0,0C465.081,492.757,465.041,492.978,464.998,493.199z"/>
	<path style="fill:#ECB45C;" d="M462.151,500.638c0-0.002,0.002-0.003,0.002-0.003c0.11-0.185,0.22-0.368,0.324-0.554
		c0.002-0.002,0.002-0.002,0.002-0.002C462.372,500.267,462.261,500.452,462.151,500.638z"/>
	<path style="fill:#ECB45C;" d="M461.15,502.179l0.002-0.002c0.123-0.172,0.239-0.349,0.357-0.524
		c0.002-0.002,0.003-0.003,0.003-0.005C461.392,501.825,461.274,502.005,461.15,502.179z"/>
	<path style="fill:#ECB45C;" d="M463.081,498.916c0.002-0.003,0.003-0.005,0.005-0.006c0.073-0.15,0.154-0.296,0.223-0.45v-0.002
		C463.237,498.615,463.158,498.764,463.081,498.916z"/>
	<polygon style="fill:#ECB45C;" points="256.009,373.377 255.985,373.367 255.985,373.367 	"/>
	<path style="fill:#ECB45C;" d="M257.178,347.698c-0.4,0.022-0.801,0.048-1.193,0.084l0,0
		C256.378,347.746,256.778,347.722,257.178,347.698z"/>
	<path style="fill:#ECB45C;" d="M255.985,425.114c0.386,0.012,0.766,0.043,1.159,0.043
		C256.752,425.157,256.372,425.126,255.985,425.114L255.985,425.114z"/>
	<path style="fill:#ECB45C;" d="M256.921,373.796c0.047,0.02,0.095,0.042,0.143,0.062
		C257.015,373.838,256.967,373.816,256.921,373.796z"/>
	<path style="fill:#ECB45C;" d="M257.749,365.368c-0.144,0.011-0.29,0.022-0.427,0.034
		C257.459,365.388,257.603,365.379,257.749,365.368z"/>
	<path style="fill:#ECB45C;" d="M259.254,365.31c-0.369,0-0.715,0.009-1.043,0.026C258.541,365.321,258.883,365.31,259.254,365.31z"
		/>
	<path style="fill:#ECB45C;" d="M256.763,365.47c-0.061,0.008-0.123,0.017-0.182,0.028
		C256.64,365.487,256.701,365.48,256.763,365.47z"/>
	<path style="fill:#ECB45C;" d="M259.309,374.767c0.095,0.036,0.182,0.071,0.278,0.109
		C259.489,374.838,259.402,374.804,259.309,374.767z"/>
	<path style="fill:#ECB45C;" d="M258.015,374.256c0.079,0.033,0.158,0.065,0.24,0.098
		C258.171,374.322,258.095,374.289,258.015,374.256z"/>
</g>
<path style="fill:#87A829;" d="M54.889,506.574c-0.157-0.13-0.315-0.259-0.469-0.396C54.574,506.315,54.732,506.444,54.889,506.574z
	"/>
<path style="fill:#FF9811;" d="M241.078,420.884c-0.006-0.003-0.012-0.008-0.019-0.012c-0.551-0.335-1.078-0.681-1.579-1.043
	c-0.039-0.028-0.076-0.057-0.113-0.085c-0.465-0.34-0.914-0.687-1.336-1.049c-0.068-0.059-0.129-0.119-0.197-0.178
	c-0.382-0.335-0.752-0.675-1.094-1.024c-0.096-0.096-0.175-0.196-0.267-0.293c-0.298-0.32-0.593-0.639-0.856-0.968
	c-0.112-0.138-0.206-0.281-0.312-0.422c-0.222-0.295-0.444-0.588-0.636-0.889c-0.116-0.182-0.208-0.365-0.313-0.549
	c-0.154-0.265-0.313-0.529-0.444-0.797c-0.11-0.228-0.191-0.459-0.285-0.69c-0.092-0.227-0.197-0.453-0.273-0.681
	c-0.093-0.287-0.149-0.574-0.216-0.861c-0.039-0.174-0.098-0.348-0.127-0.521c-0.078-0.461-0.118-0.922-0.118-1.378
	c0-4.467,3.784-9.464,8.848-9.464c3.424,0,5.483,2.219,6.844,3.686c1.623,1.75,3.196,3.387,7.396,3.582h0.005v-14.012
	c-0.725-0.29-1.499-0.59-2.355-0.912c-7.627-2.866-19.153-7.196-19.153-22.485c0-0.825,0.039-1.629,0.105-2.417
	c0.025-0.272,0.07-0.532,0.102-0.799c0.059-0.504,0.118-1.008,0.206-1.494c0.057-0.318,0.137-0.622,0.206-0.934
	c0.093-0.416,0.182-0.833,0.296-1.235c0.095-0.33,0.206-0.649,0.312-0.97c0.121-0.358,0.239-0.718,0.379-1.067
	c0.13-0.332,0.279-0.653,0.427-0.976c0.144-0.313,0.289-0.624,0.445-0.926c0.171-0.329,0.357-0.649,0.546-0.965
	c0.163-0.27,0.326-0.535,0.498-0.794c0.216-0.323,0.441-0.639,0.676-0.948c0.171-0.227,0.349-0.448,0.532-0.667
	c0.262-0.316,0.532-0.625,0.816-0.925c0.174-0.185,0.355-0.362,0.538-0.538c0.318-0.31,0.641-0.614,0.982-0.903
	c0.163-0.138,0.334-0.268,0.501-0.4c0.383-0.306,0.771-0.605,1.182-0.884c0.126-0.087,0.261-0.164,0.388-0.248
	c0.472-0.306,0.948-0.605,1.452-0.878c0.028-0.014,0.057-0.028,0.085-0.042c3.052-1.645,6.692-2.686,10.831-3.049v-84.019H93.076
	H69.803c-12.853,0-23.273,10.42-23.273,23.273v201.697c0,0.647,0.033,1.285,0.085,1.918c0.017,0.2,0.043,0.399,0.065,0.599
	c0.045,0.433,0.101,0.864,0.172,1.291c0.037,0.223,0.076,0.444,0.119,0.664c0.081,0.41,0.171,0.816,0.273,1.218
	c0.051,0.205,0.099,0.411,0.157,0.614c0.133,0.476,0.284,0.943,0.447,1.407c0.039,0.115,0.073,0.233,0.115,0.344
	c0.209,0.571,0.444,1.129,0.697,1.677c0.071,0.155,0.152,0.304,0.227,0.458c0.191,0.393,0.391,0.78,0.604,1.16
	c0.106,0.189,0.217,0.374,0.327,0.56c0.206,0.343,0.419,0.68,0.639,1.01c0.119,0.178,0.237,0.357,0.362,0.531
	c0.25,0.354,0.514,0.697,0.784,1.036c0.106,0.133,0.206,0.27,0.315,0.399c0.382,0.458,0.779,0.903,1.193,1.33
	c0.084,0.087,0.174,0.166,0.261,0.253c0.338,0.338,0.684,0.667,1.044,0.984c0.155,0.137,0.313,0.265,0.472,0.397
	c0.309,0.258,0.621,0.509,0.943,0.749c0.174,0.13,0.349,0.261,0.526,0.386c0.338,0.239,0.683,0.469,1.035,0.69
	c0.161,0.101,0.32,0.208,0.484,0.306c0.514,0.307,1.036,0.6,1.575,0.867c0.003,0.002,0.006,0.005,0.011,0.006
	c-0.005-0.002-0.008-0.003-0.011-0.006c1.772,0.881,3.671,1.545,5.663,1.952c1.516,0.31,3.081,0.473,4.689,0.473h186.182v-86.886
	C250.169,424.918,245.028,423.281,241.078,420.884z M199.184,407.288c5.14,0,5.323-1.466,5.812-5.387
	c0.565-4.617,4.208-7.727,9.061-7.727c2.136,0,9.109,0.707,9.109,9.813c0,10.476-8.448,21.079-24.598,21.079
	c-15.067,0-24.427-9.595-24.427-25.038v-27.282c0-15.391,9.46-24.953,24.688-24.953c15.978,0,24.337,10.516,24.337,20.905
	c0,6.09-3.404,9.725-9.109,9.725c-5.019,0-8.76-3.275-9.093-7.965c-0.147-3.148-1.195-4.884-6.133-4.884
	c-4.381,0-6.467,1.074-6.467,7.174v27.282C192.362,406.241,194.468,407.288,199.184,407.288z"/>
<g>
	<path style="fill:#87A829;" d="M46.681,491.242c-0.022-0.199-0.048-0.397-0.065-0.597
		C46.633,490.845,46.659,491.044,46.681,491.242z"/>
	<path style="fill:#87A829;" d="M53.367,505.189c-0.084-0.084-0.171-0.161-0.253-0.245
		C53.196,505.027,53.284,505.105,53.367,505.189z"/>
	<path style="fill:#87A829;" d="M57.877,508.708c-0.163-0.098-0.323-0.203-0.484-0.306C57.554,508.504,57.712,508.61,57.877,508.708
		z"/>
	<path style="fill:#87A829;" d="M56.358,507.712c-0.177-0.126-0.352-0.254-0.524-0.383
		C56.007,507.457,56.181,507.586,56.358,507.712z"/>
	<path style="fill:#87A829;" d="M51.918,503.612c-0.104-0.127-0.203-0.261-0.306-0.391
		C51.714,503.352,51.814,503.485,51.918,503.612z"/>
	<path style="fill:#87A829;" d="M48.886,498.91c-0.073-0.15-0.154-0.296-0.222-0.45C48.732,498.614,48.813,498.759,48.886,498.91z"
		/>
	<path style="fill:#87A829;" d="M49.817,500.634c-0.109-0.183-0.219-0.366-0.323-0.552C49.6,500.267,49.708,500.451,49.817,500.634z
		"/>
	<path style="fill:#87A829;" d="M50.821,502.176c-0.123-0.172-0.239-0.349-0.358-0.524
		C50.582,501.828,50.698,502.004,50.821,502.176z"/>
	<path style="fill:#87A829;" d="M47.403,495.028c-0.056-0.202-0.102-0.406-0.155-0.61C47.299,494.623,47.347,494.828,47.403,495.028
		z"/>
	<path style="fill:#87A829;" d="M47.964,496.78c-0.04-0.11-0.073-0.225-0.11-0.337C47.891,496.555,47.924,496.669,47.964,496.78z"/>
	<path style="fill:#87A829;" d="M46.971,493.197c-0.042-0.22-0.082-0.441-0.118-0.663C46.891,492.757,46.929,492.977,46.971,493.197
		z"/>
	<path style="fill:#87A829;" d="M47.246,494.417c0,0.002,0.002,0.002,0.002,0.002c0.051,0.203,0.098,0.408,0.155,0.61l0.002,0.002
		C47.347,494.828,47.297,494.621,47.246,494.417z"/>
	<path style="fill:#87A829;" d="M47.851,496.437c0,0.002,0.002,0.005,0.003,0.006c0.037,0.112,0.07,0.227,0.11,0.337
		c0.002,0,0.002,0,0.002,0C47.924,496.669,47.89,496.552,47.851,496.437z"/>
	<path style="fill:#87A829;" d="M46.853,492.535L46.853,492.535c0.037,0.223,0.076,0.444,0.118,0.663c0.002,0,0.002,0,0.002,0
		C46.929,492.978,46.891,492.757,46.853,492.535z"/>
	<path style="fill:#87A829;" d="M48.662,498.458L48.662,498.458c0.07,0.154,0.15,0.301,0.222,0.45
		c0.002,0.003,0.003,0.005,0.005,0.006C48.815,498.764,48.734,498.615,48.662,498.458z"/>
	<path style="fill:#87A829;" d="M46.616,490.645L46.616,490.645c0.017,0.2,0.043,0.399,0.065,0.597c0,0,0,0,0,0.002
		C46.659,491.044,46.633,490.845,46.616,490.645z"/>
	<path style="fill:#87A829;" d="M51.606,503.214c0.003,0.002,0.005,0.005,0.006,0.008c0.104,0.13,0.202,0.262,0.306,0.391
		c0.002,0,0.003,0,0.003,0.002C51.812,503.484,51.711,503.347,51.606,503.214z"/>
	<path style="fill:#87A829;" d="M54.419,506.179C54.419,506.18,54.42,506.18,54.419,506.179c0.155,0.137,0.313,0.265,0.47,0.396
		l0.002,0.002C54.732,506.444,54.574,506.315,54.419,506.179z"/>
	<path style="fill:#87A829;" d="M49.493,500.078c0,0,0,0.002,0.002,0.003c0.104,0.186,0.214,0.369,0.323,0.552
		c0.002,0.002,0.003,0.003,0.003,0.005C49.71,500.452,49.6,500.267,49.493,500.078z"/>
	<path style="fill:#87A829;" d="M50.459,501.648c0,0.002,0.002,0.003,0.003,0.005c0.118,0.175,0.234,0.352,0.358,0.524l0.002,0.002
		C50.698,502.005,50.58,501.825,50.459,501.648z"/>
	<path style="fill:#87A829;" d="M55.832,507.327L55.832,507.327c0.174,0.132,0.349,0.261,0.526,0.385l0,0
		C56.181,507.586,56.007,507.457,55.832,507.327z"/>
	<path style="fill:#87A829;" d="M53.114,504.942C53.114,504.944,53.114,504.944,53.114,504.942c0.082,0.085,0.169,0.163,0.253,0.247
		c0.002,0.002,0.005,0.003,0.008,0.006C53.289,505.11,53.198,505.029,53.114,504.942z"/>
	<path style="fill:#87A829;" d="M255.985,347.78L255.985,347.78c-4.141,0.363-7.781,1.404-10.831,3.049
		C248.206,349.187,251.844,348.143,255.985,347.78z"/>
	<path style="fill:#87A829;" d="M234.892,365.13c0.057-0.318,0.137-0.622,0.206-0.934
		C235.029,364.51,234.951,364.812,234.892,365.13z"/>
	<path style="fill:#87A829;" d="M241.06,420.873c-0.551-0.334-1.077-0.681-1.579-1.043
		C239.981,420.192,240.51,420.538,241.06,420.873z"/>
	<path style="fill:#87A829;" d="M236.087,360.926c0.13-0.332,0.279-0.655,0.427-0.976
		C236.366,360.273,236.217,360.594,236.087,360.926z"/>
	<path style="fill:#87A829;" d="M233.139,411.345c-0.039-0.174-0.098-0.348-0.127-0.521
		C233.04,410.998,233.099,411.172,233.139,411.345z"/>
	<path style="fill:#87A829;" d="M243.618,351.749c0.473-0.306,0.948-0.605,1.452-0.878
		C244.566,351.145,244.088,351.443,243.618,351.749z"/>
	<path style="fill:#87A829;" d="M234.584,367.425c0.025-0.272,0.07-0.532,0.102-0.799
		C234.653,366.893,234.608,367.154,234.584,367.425z"/>
	<path style="fill:#87A829;" d="M236.959,359.025c0.172-0.329,0.357-0.649,0.546-0.965
		C237.314,358.377,237.13,358.695,236.959,359.025z"/>
	<path style="fill:#87A829;" d="M238.002,357.266c0.216-0.323,0.441-0.639,0.676-0.948
		C238.444,356.625,238.217,356.942,238.002,357.266z"/>
	<path style="fill:#87A829;" d="M233.626,412.886c-0.092-0.227-0.197-0.453-0.273-0.681
		C233.429,412.435,233.535,412.66,233.626,412.886z"/>
	<path style="fill:#87A829;" d="M240.565,354.186c0.318-0.309,0.641-0.614,0.982-0.903
		C241.206,353.572,240.883,353.876,240.565,354.186z"/>
	<path style="fill:#87A829;" d="M242.048,352.881c0.383-0.304,0.771-0.605,1.182-0.884
		C242.819,352.278,242.431,352.577,242.048,352.881z"/>
	<path style="fill:#87A829;" d="M239.21,355.649c0.262-0.316,0.532-0.627,0.816-0.925
		C239.741,355.024,239.472,355.333,239.21,355.649z"/>
	<path style="fill:#87A829;" d="M235.397,362.963c0.095-0.33,0.206-0.649,0.312-0.97
		C235.601,362.314,235.49,362.631,235.397,362.963z"/>
	<path style="fill:#87A829;" d="M241.078,420.884c3.95,2.397,9.09,4.032,14.907,4.229l0,0
		C250.173,424.918,245.03,423.275,241.078,420.884z"/>
	<path style="fill:#87A829;" d="M237.834,418.518c-0.383-0.335-0.752-0.675-1.094-1.024
		C237.082,417.843,237.452,418.181,237.834,418.518z"/>
	<path style="fill:#87A829;" d="M236.473,417.201c-0.298-0.32-0.593-0.639-0.856-0.968
		C235.881,416.562,236.176,416.881,236.473,417.201z"/>
	<path style="fill:#87A829;" d="M239.367,419.745c-0.467-0.34-0.914-0.689-1.336-1.049
		C238.453,419.056,238.903,419.404,239.367,419.745z"/>
	<path style="fill:#87A829;" d="M235.305,415.811c-0.222-0.293-0.444-0.588-0.636-0.889
		C234.861,415.223,235.085,415.516,235.305,415.811z"/>
	<polygon style="fill:#87A829;" points="255.985,407.251 255.981,407.251 255.984,407.251 	"/>
	<path style="fill:#87A829;" d="M234.356,414.374c-0.154-0.265-0.313-0.529-0.444-0.797
		C234.042,413.845,234.202,414.109,234.356,414.374z"/>
</g>
<g>
	<path style="fill:#ECB45C;" d="M253.115,367.279L253.115,367.279c-0.206,0.344-0.309,0.704-0.36,1.052
		c0,0.002-0.002,0.003-0.002,0.006c-0.026,0.166-0.037,0.329-0.043,0.487c-0.002,0.026-0.003,0.051-0.003,0.076
		c-0.005,0.144-0.006,0.285-0.006,0.417c0,0.191,0.008,0.368,0.022,0.541c0.003,0.042,0.008,0.084,0.012,0.126
		c0.016,0.154,0.037,0.303,0.07,0.447c0.005,0.019,0.006,0.039,0.012,0.057c0.039,0.166,0.095,0.326,0.163,0.481
		c0.006,0.014,0.016,0.029,0.022,0.042c0.067,0.143,0.15,0.282,0.248,0.42c0.012,0.017,0.025,0.034,0.036,0.051
		c0.227,0.299,0.535,0.593,0.954,0.891c0.02,0.012,0.039,0.026,0.057,0.039c0.436,0.304,0.985,0.614,1.683,0.953
		c0.002,0,0.005,0.002,0.006,0.003v-7.762C254.348,365.957,253.526,366.587,253.115,367.279z"/>
	<path style="fill:#ECB45C;" d="M252.978,370.967c0.006,0.014,0.016,0.029,0.022,0.042
		C252.992,370.997,252.985,370.981,252.978,370.967z"/>
	<path style="fill:#ECB45C;" d="M252.721,369.858c0.003,0.042,0.008,0.084,0.012,0.126
		C252.729,369.942,252.724,369.901,252.721,369.858z"/>
	<path style="fill:#ECB45C;" d="M253.248,371.43c0.012,0.017,0.025,0.034,0.036,0.051
		C253.272,371.464,253.259,371.447,253.248,371.43z"/>
	<path style="fill:#ECB45C;" d="M252.803,370.429c0.005,0.019,0.006,0.039,0.012,0.057
		C252.808,370.468,252.806,370.448,252.803,370.429z"/>
	<path style="fill:#ECB45C;" d="M252.753,368.33c0,0.002-0.002,0.003-0.002,0.006C252.752,368.334,252.753,368.333,252.753,368.33z"
		/>
	<path style="fill:#ECB45C;" d="M253.115,367.279L253.115,367.279L253.115,367.279z"/>
	<path style="fill:#ECB45C;" d="M252.708,368.823c-0.002,0.026-0.003,0.05-0.003,0.076
		C252.705,368.874,252.707,368.849,252.708,368.823z"/>
	<path style="fill:#ECB45C;" d="M254.238,372.371c0.019,0.012,0.039,0.026,0.057,0.039
		C254.279,372.398,254.258,372.385,254.238,372.371z"/>
	<polygon style="fill:#ECB45C;" points="255.985,373.367 255.985,373.367 255.979,373.364 	"/>
</g>
<g>
</g>
<g>
</g>
<g>
</g>
<g>
</g>
<g>
</g>
<g>
</g>
<g>
</g>
<g>
</g>
<g>
</g>
<g>
</g>
<g>
</g>
<g>
</g>
<g>
</g>
<g>
</g>
<g>
</g>
</svg>
